<svg xmlns="http://www.w3.org/2000/svg" viewBox="0 0 640 300" width="640" height="300" role="img" aria-labelledby="t d" font-family="'Space Grotesk',ui-sans-serif,system-ui,-apple-system,'Segoe UI',Roboto,sans-serif">
<title id="t">Francesco Iaforte — AI Engineer and Full-Stack Developer</title>
<desc id="d">Name and role beside an animated agent topology: input nodes feed agents, agents feed systems, systems feed delivery.</desc>
<defs>
<linearGradient id="field" gradientUnits="userSpaceOnUse" x1="0" y1="0" x2="640" y2="300">
  <stop offset="0" stop-color="#05060f"/>
  <stop offset="0.55" stop-color="#080a17"/>
  <stop offset="1" stop-color="#0e1020"/>
</linearGradient>
<radialGradient id="halo" cx="0.5" cy="0.5" r="0.5">
  <stop offset="0" stop-color="#915eff" stop-opacity="0.30"/>
  <stop offset="1" stop-color="#915eff" stop-opacity="0"/>
</radialGradient>
<linearGradient id="rim" x1="0" y1="0" x2="1" y2="0">
  <stop offset="0" stop-color="#22d3ee"/>
  <stop offset="0.52" stop-color="#915eff"/>
  <stop offset="1" stop-color="#f272c8"/>
</linearGradient>
</defs>
<rect width="640" height="300" rx="14" fill="url(#field)"/>
<g stroke="#262a4d" stroke-width="1" opacity="0.16"><path d="M40 0V300"/><path d="M80 0V300"/><path d="M120 0V300"/><path d="M160 0V300"/><path d="M200 0V300"/><path d="M240 0V300"/><path d="M280 0V300"/><path d="M320 0V300"/><path d="M360 0V300"/><path d="M400 0V300"/><path d="M440 0V300"/><path d="M480 0V300"/><path d="M520 0V300"/><path d="M560 0V300"/><path d="M600 0V300"/><path d="M0 40H640"/><path d="M0 80H640"/><path d="M0 120H640"/><path d="M0 160H640"/><path d="M0 200H640"/><path d="M0 240H640"/><path d="M0 280H640"/></g>
<rect width="640" height="300" rx="14" fill="none" stroke="#262a4d" stroke-width="1.5"/>
<ellipse cx="520" cy="150" rx="180" ry="130" fill="url(#halo)"/>

<g>
  <rect x="40" y="52" width="26" height="3" rx="1.5" fill="url(#rim)"/>
  <text x="76" y="58" font-family="'IBM Plex Mono',ui-monospace,SFMono-Regular,Menlo,Consolas,monospace" font-size="17" letter-spacing="0.12em" fill="#22d3ee">AI ENGINEER · FULL-STACK</text>

  <text x="40" y="118" font-family="'Unbounded','Space Grotesk',ui-sans-serif,system-ui,-apple-system,'Segoe UI',Roboto,sans-serif" font-size="44" font-weight="700" letter-spacing="0.01em" fill="#f4f4fb">FRANCESCO</text>
  <text x="40" y="164" font-family="'Unbounded','Space Grotesk',ui-sans-serif,system-ui,-apple-system,'Segoe UI',Roboto,sans-serif" font-size="44" font-weight="700" letter-spacing="0.01em" fill="url(#rim)">IAFORTE</text>

  <text x="40" y="202" font-size="20" fill="#b8b6d4">I design and ship complete</text>
  <text x="40" y="228" font-size="20" fill="#b8b6d4">AI-native and full-stack systems,</text>
  <text x="40" y="254" font-size="20" fill="#b8b6d4">from architecture to production.</text>

  <text x="40" y="280" font-family="'IBM Plex Mono',ui-monospace,SFMono-Regular,Menlo,Consolas,monospace" font-size="15" letter-spacing="0.08em" fill="#8683a8">NAPOLI, ITALIA — APPLIED AI</text>
</g>

<g>
<path d="M436 135L490 105" stroke="#343963" stroke-width="1" opacity="0.5"/>
<path d="M436 135L490 135" stroke="#343963" stroke-width="1" opacity="0.5"/>
<path d="M436 135L490 165" stroke="#343963" stroke-width="1" opacity="0.5"/>
<path d="M436 135L490 195" stroke="#343963" stroke-width="1" opacity="0.5"/>
<path d="M436 165L490 105" stroke="#343963" stroke-width="1" opacity="0.5"/>
<path d="M436 165L490 135" stroke="#343963" stroke-width="1" opacity="0.5"/>
<path d="M436 165L490 165" stroke="#343963" stroke-width="1" opacity="0.5"/>
<path d="M436 165L490 195" stroke="#343963" stroke-width="1" opacity="0.5"/>
<path d="M490 105L544 120" stroke="#343963" stroke-width="1" opacity="0.5"/>
<path d="M490 105L544 150" stroke="#343963" stroke-width="1" opacity="0.5"/>
<path d="M490 105L544 180" stroke="#343963" stroke-width="1" opacity="0.5"/>
<path d="M490 135L544 120" stroke="#343963" stroke-width="1" opacity="0.5"/>
<path d="M490 135L544 150" stroke="#343963" stroke-width="1" opacity="0.5"/>
<path d="M490 135L544 180" stroke="#343963" stroke-width="1" opacity="0.5"/>
<path d="M490 165L544 120" stroke="#343963" stroke-width="1" opacity="0.5"/>
<path d="M490 165L544 150" stroke="#343963" stroke-width="1" opacity="0.5"/>
<path d="M490 165L544 180" stroke="#343963" stroke-width="1" opacity="0.5"/>
<path d="M490 195L544 120" stroke="#343963" stroke-width="1" opacity="0.5"/>
<path d="M490 195L544 150" stroke="#343963" stroke-width="1" opacity="0.5"/>
<path d="M490 195L544 180" stroke="#343963" stroke-width="1" opacity="0.5"/>
<path d="M544 120L598 135" stroke="#343963" stroke-width="1" opacity="0.5"/>
<path d="M544 120L598 165" stroke="#343963" stroke-width="1" opacity="0.5"/>
<path d="M544 150L598 135" stroke="#343963" stroke-width="1" opacity="0.5"/>
<path d="M544 150L598 165" stroke="#343963" stroke-width="1" opacity="0.5"/>
<path d="M544 180L598 135" stroke="#343963" stroke-width="1" opacity="0.5"/>
<path d="M544 180L598 165" stroke="#343963" stroke-width="1" opacity="0.5"/>
<g>
    <circle cx="436" cy="135" r="9" fill="#22d3ee" opacity="0.10">
      <animate attributeName="r" values="9;13;9" dur="4s" begin="0s" repeatCount="indefinite"/>
    </circle>
    <circle cx="436" cy="135" r="4.2" fill="#080a17" stroke="#22d3ee" stroke-width="1.6"/>
  </g>
<g>
    <circle cx="436" cy="165" r="9" fill="#22d3ee" opacity="0.10">
      <animate attributeName="r" values="9;13;9" dur="4s" begin="0.25s" repeatCount="indefinite"/>
    </circle>
    <circle cx="436" cy="165" r="4.2" fill="#080a17" stroke="#22d3ee" stroke-width="1.6"/>
  </g>
<g>
    <circle cx="490" cy="105" r="9" fill="#b18cff" opacity="0.10">
      <animate attributeName="r" values="9;13;9" dur="4s" begin="0.75s" repeatCount="indefinite"/>
    </circle>
    <circle cx="490" cy="105" r="4.2" fill="#080a17" stroke="#b18cff" stroke-width="1.6"/>
  </g>
<g>
    <circle cx="490" cy="135" r="9" fill="#b18cff" opacity="0.10">
      <animate attributeName="r" values="9;13;9" dur="4s" begin="1s" repeatCount="indefinite"/>
    </circle>
    <circle cx="490" cy="135" r="4.2" fill="#080a17" stroke="#b18cff" stroke-width="1.6"/>
  </g>
<g>
    <circle cx="490" cy="165" r="9" fill="#b18cff" opacity="0.10">
      <animate attributeName="r" values="9;13;9" dur="4s" begin="1.25s" repeatCount="indefinite"/>
    </circle>
    <circle cx="490" cy="165" r="4.2" fill="#080a17" stroke="#b18cff" stroke-width="1.6"/>
  </g>
<g>
    <circle cx="490" cy="195" r="9" fill="#b18cff" opacity="0.10">
      <animate attributeName="r" values="9;13;9" dur="4s" begin="1.5s" repeatCount="indefinite"/>
    </circle>
    <circle cx="490" cy="195" r="4.2" fill="#080a17" stroke="#b18cff" stroke-width="1.6"/>
  </g>
<g>
    <circle cx="544" cy="120" r="9" fill="#915eff" opacity="0.10">
      <animate attributeName="r" values="9;13;9" dur="4s" begin="1.5s" repeatCount="indefinite"/>
    </circle>
    <circle cx="544" cy="120" r="4.2" fill="#080a17" stroke="#915eff" stroke-width="1.6"/>
  </g>
<g>
    <circle cx="544" cy="150" r="9" fill="#915eff" opacity="0.10">
      <animate attributeName="r" values="9;13;9" dur="4s" begin="1.75s" repeatCount="indefinite"/>
    </circle>
    <circle cx="544" cy="150" r="4.2" fill="#080a17" stroke="#915eff" stroke-width="1.6"/>
  </g>
<g>
    <circle cx="544" cy="180" r="9" fill="#915eff" opacity="0.10">
      <animate attributeName="r" values="9;13;9" dur="4s" begin="2s" repeatCount="indefinite"/>
    </circle>
    <circle cx="544" cy="180" r="4.2" fill="#080a17" stroke="#915eff" stroke-width="1.6"/>
  </g>
<g>
    <circle cx="598" cy="135" r="9" fill="#f272c8" opacity="0.10">
      <animate attributeName="r" values="9;13;9" dur="4s" begin="2.25s" repeatCount="indefinite"/>
    </circle>
    <circle cx="598" cy="135" r="4.2" fill="#080a17" stroke="#f272c8" stroke-width="1.6"/>
  </g>
<g>
    <circle cx="598" cy="165" r="9" fill="#f272c8" opacity="0.10">
      <animate attributeName="r" values="9;13;9" dur="4s" begin="2.5s" repeatCount="indefinite"/>
    </circle>
    <circle cx="598" cy="165" r="4.2" fill="#080a17" stroke="#f272c8" stroke-width="1.6"/>
  </g>
<circle r="3" fill="#b18cff" opacity="0">
    <animate attributeName="opacity" values="0;1;1;0" dur="3.2s" begin="0s" repeatCount="indefinite"/>
    <animateMotion dur="3.2s" begin="0s" repeatCount="indefinite" path="M436 135L490 135"/>
  </circle>
<circle r="3" fill="#915eff" opacity="0">
    <animate attributeName="opacity" values="0;1;1;0" dur="3.2s" begin="0.55s" repeatCount="indefinite"/>
    <animateMotion dur="3.2s" begin="0.55s" repeatCount="indefinite" path="M490 135L544 180"/>
  </circle>
<circle r="3" fill="#f272c8" opacity="0">
    <animate attributeName="opacity" values="0;1;1;0" dur="3.2s" begin="1.1s" repeatCount="indefinite"/>
    <animateMotion dur="3.2s" begin="1.1s" repeatCount="indefinite" path="M544 180L598 165"/>
  </circle>
</g>
</svg>
